<svg width="32" height="32" viewBox="0 0 32 32" xmlns="http://www.w3.org/2000/svg">
  <defs>
    <!-- Background gradient -->
    <radialGradient id="bgGradient" cx="50%" cy="30%" r="70%">
      <stop offset="0%" style="stop-color:#6366f1;stop-opacity:1" />
      <stop offset="60%" style="stop-color:#4338ca;stop-opacity:1" />
      <stop offset="100%" style="stop-color:#312e81;stop-opacity:1" />
    </radialGradient>
    
    <!-- Book gradient -->
    <linearGradient id="bookGradient" x1="0%" y1="0%" x2="100%" y2="100%">
      <stop offset="0%" style="stop-color:#ffffff;stop-opacity:1" />
      <stop offset="100%" style="stop-color:#f8fafc;stop-opacity:1" />
    </linearGradient>
    
    <!-- Subtle shadow -->
    <filter id="shadow" x="-20%" y="-20%" width="140%" height="140%">
      <feDropShadow dx="1" dy="2" stdDeviation="1" flood-color="#1e1b4b" flood-opacity="0.3"/>
    </filter>
  </defs>
  
  <!-- Main background circle -->
  <circle cx="16" cy="16" r="15" fill="url(#bgGradient)" stroke="#1e1b4b" stroke-width="0.8"/>
  
  <!-- Book -->
  <g filter="url(#shadow)">
    <!-- Book cover -->
    <rect x="9" y="13" width="14" height="15" rx="1" fill="url(#bookGradient)" stroke="#4338ca" stroke-width="0.5"/>
    
    <!-- Book spine -->
    <rect x="9" y="13" width="3" height="15" fill="#1e40af" rx="0.5"/>
    
    <!-- Book pages/text lines -->
    <rect x="13" y="16" width="7" height="1" fill="#cbd5e1" rx="0.2"/>
    <rect x="13" y="18" width="6" height="1" fill="#cbd5e1" rx="0.2"/>
    <rect x="13" y="20" width="7" height="1" fill="#cbd5e1" rx="0.2"/>
    <rect x="13" y="22" width="5" height="1" fill="#cbd5e1" rx="0.2"/>
    <rect x="13" y="24" width="6" height="1" fill="#cbd5e1" rx="0.2"/>
  </g>
  
  <!-- Graduation cap -->
  <g filter="url(#shadow)">
    <!-- Cap base (mortarboard) -->
    <ellipse cx="16" cy="9" rx="9" ry="2.5" fill="#1e1b4b"/>
    
    <!-- Cap top -->
    <rect x="11" y="5" width="10" height="5" fill="#1e1b4b" rx="0.5"/>
    
    <!-- Cap button/center -->
    <circle cx="16" cy="7.5" r="1" fill="#312e81"/>
    
    <!-- Tassel -->
    <circle cx="23" cy="7" r="1.5" fill="#fbbf24"/>
    <line x1="23" y1="8.5" x2="26" y2="13" stroke="#fbbf24" stroke-width="1.2" stroke-linecap="round"/>
    <circle cx="26" cy="13" r="1" fill="#f59e0b"/>
  </g>
  
  <!-- Subtle highlight on circle -->
  <circle cx="16" cy="16" r="14.2" fill="none" stroke="rgba(255,255,255,0.2)" stroke-width="0.8"/>
  
  <!-- Inner shine -->
  <circle cx="13" cy="11" r="3" fill="rgba(255,255,255,0.1)"/>
</svg>
